<svg width="40" height="40" viewBox="0 0 40 40" fill="none" xmlns="http://www.w3.org/2000/svg">
<circle cx="20" cy="20" r="19.5" stroke="#533C72"/>
<path d="M16.5 12.1667H23.5C26.1667 12.1667 28.3333 14.3334 28.3333 17.0001V24.0001C28.3333 25.282 27.8241 26.5113 26.9177 27.4178C26.0112 28.3242 24.7819 28.8334 23.5 28.8334H16.5C13.8333 28.8334 11.6667 26.6667 11.6667 24.0001V17.0001C11.6667 15.7182 12.1759 14.4888 13.0823 13.5824C13.9887 12.676 15.2181 12.1667 16.5 12.1667ZM16.3333 13.8334C15.5377 13.8334 14.7746 14.1495 14.212 14.7121C13.6494 15.2747 13.3333 16.0378 13.3333 16.8334V24.1667C13.3333 25.8251 14.675 27.1667 16.3333 27.1667H23.6667C24.4623 27.1667 25.2254 26.8507 25.788 26.2881C26.3506 25.7255 26.6667 24.9624 26.6667 24.1667V16.8334C26.6667 15.1751 25.325 13.8334 23.6667 13.8334H16.3333ZM24.375 15.0834C24.6513 15.0834 24.9162 15.1932 25.1116 15.3885C25.3069 15.5839 25.4167 15.8488 25.4167 16.1251C25.4167 16.4013 25.3069 16.6663 25.1116 16.8617C24.9162 17.057 24.6513 17.1667 24.375 17.1667C24.0987 17.1667 23.8338 17.057 23.6384 16.8617C23.4431 16.6663 23.3333 16.4013 23.3333 16.1251C23.3333 15.8488 23.4431 15.5839 23.6384 15.3885C23.8338 15.1932 24.0987 15.0834 24.375 15.0834ZM20 16.3334C21.1051 16.3334 22.1649 16.7724 22.9463 17.5538C23.7277 18.3352 24.1667 19.395 24.1667 20.5001C24.1667 21.6052 23.7277 22.665 22.9463 23.4464C22.1649 24.2278 21.1051 24.6667 20 24.6667C18.8949 24.6667 17.8351 24.2278 17.0537 23.4464C16.2723 22.665 15.8333 21.6052 15.8333 20.5001C15.8333 19.395 16.2723 18.3352 17.0537 17.5538C17.8351 16.7724 18.8949 16.3334 20 16.3334ZM20 18.0001C19.3369 18.0001 18.7011 18.2635 18.2322 18.7323C17.7634 19.2012 17.5 19.837 17.5 20.5001C17.5 21.1631 17.7634 21.799 18.2322 22.2678C18.7011 22.7367 19.3369 23.0001 20 23.0001C20.663 23.0001 21.2989 22.7367 21.7678 22.2678C22.2366 21.799 22.5 21.1631 22.5 20.5001C22.5 19.837 22.2366 19.2012 21.7678 18.7323C21.2989 18.2635 20.663 18.0001 20 18.0001Z" fill="url(#paint0_linear_3_7336)"/>
<defs>
<linearGradient id="paint0_linear_3_7336" x1="14.1405" y1="25.765" x2="25.5407" y2="15.5216" gradientUnits="userSpaceOnUse">
<stop stop-color="#F7E93F"/>
<stop offset="0.5112" stop-color="#FB09B4"/>
<stop offset="1" stop-color="#9100F8"/>
</linearGradient>
</defs>
</svg>
