<svg width="40" height="40" viewBox="0 0 40 40" fill="none" xmlns="http://www.w3.org/2000/svg">
<circle cx="20" cy="20" r="19.5" stroke="#533C72"/>
<path d="M15.7833 14.1668C15.7831 14.6088 15.6073 15.0326 15.2946 15.345C14.9819 15.6574 14.5579 15.8328 14.1158 15.8326C13.6738 15.8324 13.25 15.6566 12.9376 15.3439C12.6252 15.0311 12.4498 14.6071 12.45 14.1651C12.4502 13.7231 12.626 13.2992 12.9388 12.9868C13.2515 12.6744 13.6755 12.499 14.1175 12.4993C14.5595 12.4995 14.9834 12.6753 15.2958 12.988C15.6082 13.3007 15.7836 13.7247 15.7833 14.1668ZM15.8333 17.0668H12.5V27.5001H15.8333V17.0668ZM21.1 17.0668H17.7833V27.5001H21.0667V22.0251C21.0667 18.9751 25.0417 18.6918 25.0417 22.0251V27.5001H28.3333V20.8918C28.3333 15.7501 22.45 15.9418 21.0667 18.4668L21.1 17.0668Z" fill="url(#paint0_linear_3_7323)"/>
<defs>
<linearGradient id="paint0_linear_3_7323" x1="14.8076" y1="24.7384" x2="25.1143" y2="14.9327" gradientUnits="userSpaceOnUse">
<stop stop-color="#F7E93F"/>
<stop offset="0.5112" stop-color="#FB09B4"/>
<stop offset="1" stop-color="#9100F8"/>
</linearGradient>
</defs>
</svg>
