<svg width="40" height="40" viewBox="0 0 40 40" fill="none" xmlns="http://www.w3.org/2000/svg">
<circle cx="20" cy="20" r="19.5" stroke="#533C72"/>
<path d="M11.6667 20.5001C11.6667 17.7501 11.6667 16.3751 12.8867 15.5209C14.1083 14.6667 16.0717 14.6667 20 14.6667C23.9283 14.6667 25.8925 14.6667 27.1125 15.5209C28.3325 16.3751 28.3333 17.7501 28.3333 20.5001C28.3333 23.2501 28.3333 24.6251 27.1125 25.4792C25.8933 26.3334 23.9283 26.3334 20 26.3334C16.0717 26.3334 14.1075 26.3334 12.8867 25.4792C11.6658 24.6251 11.6667 23.2501 11.6667 20.5001Z" stroke="url(#paint0_linear_3_7340)" stroke-width="1.5" stroke-linecap="round" stroke-linejoin="round"/>
<path d="M18.75 18.7569V22.2435C18.7502 22.2884 18.7593 22.3328 18.7766 22.3742C18.794 22.4155 18.8194 22.4531 18.8513 22.4846C18.8831 22.5162 18.9209 22.5412 18.9625 22.5582C19.004 22.5751 19.0485 22.5837 19.0933 22.5835C19.161 22.5843 19.2272 22.5646 19.2833 22.5269L21.9292 20.7985C21.9762 20.7681 22.015 20.7263 22.0419 20.6771C22.0688 20.6279 22.083 20.5728 22.0833 20.5167C22.0835 20.4606 22.0698 20.4054 22.0433 20.3559C22.0168 20.3065 21.9785 20.2644 21.9317 20.2335L19.2858 18.4752C19.2102 18.4246 19.1176 18.4058 19.0283 18.423C18.9389 18.4401 18.8598 18.4918 18.8083 18.5669C18.77 18.6228 18.7497 18.6891 18.75 18.7569Z" stroke="url(#paint1_linear_3_7340)" stroke-width="1.5" stroke-linecap="round" stroke-linejoin="round"/>
<defs>
<linearGradient id="paint0_linear_3_7340" x1="14.1405" y1="24.1855" x2="21.9226" y2="14.1964" gradientUnits="userSpaceOnUse">
<stop stop-color="#F7E93F"/>
<stop offset="0.5112" stop-color="#FB09B4"/>
<stop offset="1" stop-color="#9100F8"/>
</linearGradient>
<linearGradient id="paint1_linear_3_7340" x1="19.2448" y1="21.8164" x2="21.9618" y2="19.8635" gradientUnits="userSpaceOnUse">
<stop stop-color="#F7E93F"/>
<stop offset="0.5112" stop-color="#FB09B4"/>
<stop offset="1" stop-color="#9100F8"/>
</linearGradient>
</defs>
</svg>
